<svg width="5760" height="2400" viewBox="0 0 5760 2400" version="1.1" xmlns="http://www.w3.org/2000/svg" xmlns:xlink="http://www.w3.org/1999/xlink">
<title>Landing</title>
<desc>Created using Figma</desc>
<g id="Canvas" transform="translate(5739 7419)">
<clipPath id="clip-0" clip-rule="evenodd">
<path d="M -5739 -7419L 21 -7419L 21 -5019L -5739 -5019L -5739 -7419Z" fill="#FFFFFF"/>
</clipPath>
<g id="Landing" clip-path="url(#clip-0)">
<g id="Group">
<g id="Ellipse 2">
<use xlink:href="#path0_fill" transform="translate(-910.576 -6504.23)" fill="#FDA105"/>
</g>
<g id="Ellipse 2">
<use xlink:href="#path0_fill" transform="translate(-1712.31 -6829)" fill="#EB6051"/>
</g>
<g id="Group">
<g id="Ellipse 2">
<use xlink:href="#path1_fill" transform="translate(-1534.45 -6374.87)" fill="#F2F2F2"/>
</g>
<g id="Ellipse 2">
<use xlink:href="#path1_fill" transform="translate(-1534.45 -6276.49)" fill="#F2F2F2"/>
</g>
<g id="Ellipse 2">
<use xlink:href="#path1_fill" transform="translate(-1534.45 -6178.12)" fill="#F2F2F2"/>
</g>
</g>
<g id="Group">
<g id="Ellipse 2">
<use xlink:href="#path2_fill" transform="matrix(6.12268e-17 -1 1 6.12379e-17 -864.763 -5457.16)" fill="#F2F2F2"/>
</g>
<g id="Ellipse 2">
<use xlink:href="#path2_fill" transform="matrix(6.12268e-17 -1 1 6.12379e-17 -766.398 -5457.16)" fill="#F2F2F2"/>
</g>
<g id="Ellipse 2">
<use xlink:href="#path2_fill" transform="matrix(6.12268e-17 -1 1 6.12379e-17 -668.034 -5457.16)" fill="#F2F2F2"/>
</g>
</g>
<g id="Group">
<g id="Ellipse 2">
<use xlink:href="#path2_fill" transform="matrix(6.12268e-17 -1 1 6.12379e-17 -2400.86 -5455.82)" fill="#F2F2F2"/>
</g>
<g id="Ellipse 2">
<use xlink:href="#path2_fill" transform="matrix(6.12268e-17 -1 1 6.12379e-17 -2302.5 -5455.82)" fill="#F2F2F2"/>
</g>
<g id="Ellipse 2">
<use xlink:href="#path2_fill" transform="matrix(6.12268e-17 -1 1 6.12379e-17 -2204.14 -5455.82)" fill="#F2F2F2"/>
</g>
</g>
<g id="Group">
<g id="Ellipse 2">
<use xlink:href="#path3_fill" transform="matrix(0.707074 -0.707139 0.707074 0.707139 -2150.24 -6094.19)" fill="#F2F2F2"/>
</g>
<g id="Ellipse 2">
<use xlink:href="#path3_fill" transform="matrix(0.707074 -0.707139 0.707074 0.707139 -2080.68 -6024.63)" fill="#F2F2F2"/>
</g>
<g id="Ellipse 2">
<use xlink:href="#path3_fill" transform="matrix(0.707074 -0.707139 0.707074 0.707139 -2011.13 -5955.06)" fill="#F2F2F2"/>
</g>
</g>
<g id="Group">
<g id="Ellipse 2">
<use xlink:href="#path3_fill" transform="matrix(0.707074 0.707139 -0.707074 0.707139 -911.22 -6132.3)" fill="#F2F2F2"/>
</g>
<g id="Ellipse 2">
<use xlink:href="#path3_fill" transform="matrix(0.707074 0.707139 -0.707074 0.707139 -980.774 -6062.74)" fill="#F2F2F2"/>
</g>
<g id="Ellipse 2">
<use xlink:href="#path3_fill" transform="matrix(0.707074 0.707139 -0.707074 0.707139 -1050.33 -5993.18)" fill="#F2F2F2"/>
</g>
</g>
<g id="Ellipse 2">
<use xlink:href="#path0_fill" transform="translate(-2514.05 -6488.06)" fill="#37ADB9"/>
</g>
<g id="Ellipse 2">
<use xlink:href="#path0_fill" transform="translate(-2859 -5682.21)" fill="#FDA105"/>
</g>
<g id="Ellipse 2">
<use xlink:href="#path0_fill" transform="translate(-565.627 -5680.86)" fill="#B9D84E"/>
</g>
<g id="Group">
<g id="Union">
<use xlink:href="#path4_fill" transform="translate(-1926.56 -5887.04)" fill="#2D9CDB"/>
<mask id="mask0_outline_ins">
<use xlink:href="#path4_fill" fill="white" transform="translate(-1926.56 -5887.04)"/>
</mask>
<g mask="url(#mask0_outline_ins)">
<use xlink:href="#path5_stroke_2x" transform="translate(-1926.56 -5887.04)" fill="#F2F2F2"/>
</g>
</g>
<g id="Group">
<g id="Subtract">
<use xlink:href="#path6_fill" transform="translate(-1576.22 -5645.82)" fill="#F2F2F2"/>
</g>
<g id="Subtract">
<use xlink:href="#path7_fill" transform="translate(-1566.17 -5487.1)" fill="#F2F2F2"/>
</g>
</g>
<g id="Vector 2">
<use xlink:href="#path8_stroke" transform="translate(-1511.54 -5513.76)" fill="#F2F2F2"/>
</g>
<g id="Line 3">
<use xlink:href="#path9_stroke" transform="translate(-1118.08 -5158)" fill="#F2F2F2"/>
</g>
<g id="Line 3">
<use xlink:href="#path9_stroke" transform="translate(-1167.94 -5158)" fill="#F2F2F2"/>
</g>
<g id="Line 3">
<use xlink:href="#path9_stroke" transform="translate(-1219.14 -5158)" fill="#F2F2F2"/>
</g>
</g>
</g>
</g>
</g>
<defs>
<path id="path0_fill" d="M 409.627 204.832C 409.627 317.958 317.929 409.665 204.814 409.665C 91.6982 409.665 0 317.958 0 204.832C 0 91.7065 91.6982 0 204.814 0C 317.929 0 409.627 91.7065 409.627 204.832Z"/>
<path id="path1_fill" d="M 53.8983 26.9516C 53.8983 41.8366 41.8328 53.9032 26.9492 53.9032C 12.0655 53.9032 0 41.8366 0 26.9516C 0 12.0666 12.0655 0 26.9492 0C 41.8328 0 53.8983 12.0666 53.8983 26.9516Z"/>
<path id="path2_fill" d="M 53.9032 26.9492C 53.9032 41.8328 41.8366 53.8983 26.9516 53.8983C 12.0666 53.8983 0 41.8328 0 26.9492C 0 12.0655 12.0666 0 26.9516 0C 41.8366 0 53.9032 12.0655 53.9032 26.9492Z"/>
<path id="path3_fill" d="M 53.9008 26.9504C 53.9008 41.8347 41.8347 53.9008 26.9504 53.9008C 12.0661 53.9008 0 41.8347 0 26.9504C 0 12.0661 12.0661 0 26.9504 0C 41.8347 0 53.9008 12.0661 53.9008 26.9504Z"/>
<path id="path4_fill" fill-rule="evenodd" d="M 635.562 548.465L 195.381 548.465L 195.381 548.447C 194.484 548.459 193.586 548.465 192.686 548.465C 86.2687 548.465 0 462.188 0 355.761C 0 249.333 86.2687 163.057 192.686 163.057C 195.296 163.057 197.893 163.109 200.477 163.212C 226.126 69.1504 312.16 0 414.343 0C 516.526 0 602.56 69.1504 628.21 163.212C 630.794 163.109 633.391 163.057 636 163.057C 742.418 163.057 828.687 249.333 828.687 355.761C 828.687 462.188 742.418 548.465 636 548.465C 635.854 548.465 635.708 548.465 635.562 548.465Z"/>
<path id="path5_stroke_2x" d="M 195.381 548.465L 170.381 548.465L 170.381 573.465L 195.381 573.465L 195.381 548.465ZM 195.381 548.447L 220.381 548.447L 220.381 523.104L 195.041 523.449L 195.381 548.447ZM 200.477 163.212L 199.486 188.192L 219.363 188.981L 224.596 169.789L 200.477 163.212ZM 628.21 163.212L 604.09 169.789L 609.324 188.981L 629.201 188.192L 628.21 163.212ZM 635.562 523.465L 195.381 523.465L 195.381 573.465L 635.562 573.465L 635.562 523.465ZM 220.381 548.465L 220.381 548.447L 170.381 548.447L 170.381 548.465L 220.381 548.465ZM 195.041 523.449C 194.226 523.46 193.498 523.466 192.686 523.465L 192.686 573.465C 193.675 573.465 194.743 573.458 195.722 573.444L 195.041 523.449ZM 192.686 523.465C 100.078 523.465 25 448.384 25 355.761L -25 355.761C -25 475.993 72.4594 573.465 192.686 573.465L 192.686 523.465ZM 25 355.761C 25 263.138 100.078 188.057 192.686 188.057L 192.686 138.057C 72.4594 138.057 -25 235.529 -25 355.761L 25 355.761ZM 192.686 188.057C 195.044 188.056 197.146 188.098 199.486 188.192L 201.468 138.232C 198.64 138.121 195.547 138.058 192.686 138.057L 192.686 188.057ZM 224.596 169.789C 247.356 86.3242 323.722 25 414.343 25L 414.343 -25C 300.598 -25 204.896 51.9766 176.357 156.635L 224.596 169.789ZM 414.343 25C 504.965 25 581.331 86.3242 604.09 169.789L 652.329 156.635C 623.79 51.9766 528.088 -25 414.343 -25L 414.343 25ZM 629.201 188.192C 631.541 188.098 633.642 188.056 636 188.057L 636 138.057C 633.139 138.058 630.047 138.121 627.218 138.232L 629.201 188.192ZM 636 188.057C 728.609 188.057 803.687 263.138 803.687 355.761L 853.687 355.761C 853.687 235.529 756.227 138.057 636 138.057L 636 188.057ZM 803.687 355.761C 803.687 448.384 728.609 523.465 636 523.465L 636 573.465C 756.227 573.465 853.687 475.993 853.687 355.761L 803.687 355.761ZM 636 523.465C 635.896 523.465 635.749 523.465 635.562 523.465L 635.562 573.465C 635.666 573.465 635.812 573.465 636 573.465L 636 523.465Z"/>
<path id="path6_fill" fill-rule="evenodd" d="M 110.595 0L 110.595 30.1743C 110.595 30.1743 113.361 34.1548 115.622 34.1548C 117.883 34.1548 120.649 30.1743 120.649 30.1743L 120.649 0L 125.703 0C 128.465 0 130.703 2.23877 130.703 5L 130.703 143.675C 130.703 146.437 128.465 148.675 125.703 148.675L 5 148.675C 2.23853 148.675 0 146.437 0 143.675L 0 5C 0 2.23877 2.23853 0 5 0L 10.0541 0L 10.0541 31.1421C 10.0541 31.1421 12.8201 35.1226 15.0812 35.1226C 17.3423 35.1226 20.1082 31.1421 20.1082 31.1421L 20.1082 0L 30.1624 0L 30.1624 30.1743C 30.1624 30.1743 32.9283 34.1548 35.1895 34.1548C 37.4506 34.1548 40.2164 30.1743 40.2164 30.1743L 40.2164 0L 50.2706 0L 50.2706 31.1421C 50.2706 31.1421 53.0366 35.1226 55.2977 35.1226C 57.5588 35.1226 60.3247 31.1421 60.3247 31.1421L 60.3247 0L 70.3787 0L 70.3787 30.1743C 70.3787 30.1743 73.1447 34.1548 75.4058 34.1548C 77.6669 34.1548 80.4327 30.1743 80.4327 30.1743L 80.4327 0L 90.4869 0L 90.4869 31.1421C 90.4869 31.1421 93.2529 35.1226 95.514 35.1226C 97.7751 35.1226 100.541 31.1421 100.541 31.1421L 100.541 0L 110.595 0Z"/>
<path id="path7_fill" fill-rule="evenodd" d="M 0 0L 110.595 0L 109.817 6.02734L 0.778442 6.02734L 0 0ZM 1.55676 12.0547L 109.038 12.0547L 108.26 18.0825L 2.33521 18.0825L 1.55676 12.0547ZM 3.11365 24.1099L 3.89197 30.1372L 106.703 30.1372L 107.482 24.1099L 3.11365 24.1099ZM 5.44873 42.1919L 4.67041 36.1646L 105.925 36.1646L 105.146 42.1919L 5.44873 42.1919ZM 6.22717 48.2192L 8.04333 62.2827L 102.552 62.2827L 104.368 48.2192L 6.22717 48.2192Z"/>
<path id="path8_stroke" d="M 8.48421 334.2L 15.8966 327.488L 8.48421 334.2ZM 0 301.858L -10 301.858L -10 301.861L 0 301.858ZM 44.1918 341.612L 44.1918 331.612L 43.6384 331.612L 43.0884 331.673L 44.1918 341.612ZM -10 0L -10 301.858L 10 301.858L 10 0L -10 0ZM 0 301.858C -10 301.861 -10 301.863 -10 301.865C -10 301.866 -10 301.868 -9.99999 301.869C -9.99999 301.871 -9.99999 301.876 -9.99998 301.88C -9.99997 301.885 -9.99994 301.896 -9.99991 301.907C -9.99986 301.923 -9.99972 301.954 -9.99953 301.986C -9.99919 302.04 -9.99838 302.136 -9.99709 302.243C -9.99468 302.435 -9.98926 302.754 -9.97981 303.122C -9.96169 303.818 -9.92213 304.912 -9.84983 306.172C -9.70841 308.603 -9.39813 312.238 -8.8213 316.035C -7.74595 323.042 -5.3379 333.834 1.07186 340.912L 15.8966 327.488C 13.8286 325.204 11.9946 319.825 10.9472 313.001C 10.4627 309.883 10.2415 307.189 10.1168 305.018C 10.056 303.977 10.0288 303.203 10.0135 302.605C 10.0062 302.327 10.0032 302.143 10.0014 301.994C 10.0006 301.93 10.0003 301.896 10.0001 301.862C 10 301.85 10 301.849 9.99999 301.843C 9.99998 301.842 9.99999 301.845 9.99999 301.845C 9.99999 301.844 10 301.85 10 301.849C 10 301.85 10 301.851 10 301.852C 10 301.854 10 301.855 0 301.858ZM 1.07186 340.912C 8.6602 349.292 21.3767 351.196 29.1272 351.756C 33.4253 352.058 37.5873 352.016 40.3593 351.898C 41.7981 351.835 43.052 351.749 43.8483 351.685C 44.2709 351.65 44.6368 351.617 44.8572 351.595C 44.979 351.584 45.0895 351.572 45.1514 351.566C 45.188 351.562 45.2242 351.558 45.2426 351.556C 45.2546 351.555 45.2678 351.554 45.2738 351.553C 45.2782 351.552 45.2836 351.552 45.2858 351.552C 45.2876 351.551 45.29 351.551 45.2908 351.551C 45.2931 351.551 45.2953 351.551 44.1918 341.612C 43.0884 331.673 43.0904 331.673 43.0922 331.672C 43.0927 331.672 43.0945 331.672 43.0955 331.672C 43.0949 331.672 43.1014 331.671 43.1003 331.671C 43.1006 331.671 43.1035 331.671 43.1028 331.671C 43.0958 331.672 43.0941 331.672 43.0806 331.673C 43.0422 331.678 43.0036 331.681 42.9302 331.689C 42.76 331.705 42.5508 331.724 42.2347 331.75C 41.5535 331.805 40.676 331.867 39.4985 331.916C 37.0379 332.024 34.0281 332.067 30.5694 331.808C 22.8063 331.247 17.669 329.445 15.8966 327.488L 1.07186 340.912ZM 44.1918 351.612L 267.196 351.612L 267.196 331.612L 44.1918 331.612L 44.1918 351.612Z"/>
<path id="path9_stroke" d="M 0 0L 29.6441 0L 29.6441 -20L 0 -20L 0 0Z"/>
</defs>
</svg>
